<?xml version="1.0" standalone="no"?>
<!DOCTYPE svg PUBLIC "-//W3C//DTD SVG 20010904//EN"
 "http://www.w3.org/TR/2001/REC-SVG-20010904/DTD/svg10.dtd">
<svg version="1.0" xmlns="http://www.w3.org/2000/svg"
 width="700.000000pt" height="700.000000pt" viewBox="0 0 700.000000 700.000000"
 preserveAspectRatio="xMidYMid meet">
<metadata>
Created by potrace 1.14, written by Peter Selinger 2001-2017
</metadata>
<g transform="translate(0.000000,700.000000) scale(0.100000,-0.100000)"
fill="#000000" stroke="none">
<path d="M5608 5725 c-2 -2 -35 -5 -74 -9 -508 -42 -964 -301 -1221 -694 -84
-128 -176 -337 -198 -453 -6 -31 -19 -93 -20 -99 -1 -3 -5 -27 -10 -55 -4 -27
-9 -59 -11 -70 -2 -11 -11 -65 -19 -120 -8 -55 -17 -111 -19 -125 -6 -34 -44
-275 -51 -325 -8 -50 -13 -83 -19 -115 -3 -14 -8 -43 -11 -65 -3 -22 -12 -83
-21 -135 -9 -52 -18 -110 -20 -129 -3 -19 -18 -118 -35 -220 -43 -268 -85
-541 -94 -616 -13 -116 -6 -276 20 -405 22 -110 96 -274 168 -370 237 -316
652 -466 1202 -436 479 27 909 228 1186 556 51 60 143 194 159 232 5 12 14 30
20 38 25 39 64 135 95 237 30 99 59 253 110 583 9 58 19 116 21 130 2 14 11
68 19 120 8 52 17 106 19 120 3 14 14 86 25 160 11 74 25 159 31 189 5 29 10
55 10 57 0 2 -344 4 -765 4 l-765 0 -5 -22 c-6 -29 -22 -129 -30 -188 -4 -25
-19 -126 -35 -225 -16 -99 -32 -198 -35 -220 -3 -22 -8 -52 -11 -67 -4 -19 -1
-28 8 -29 7 0 151 -1 320 -1 l307 -1 -4 -36 c-3 -20 -8 -52 -11 -71 -7 -41 -7
-41 -29 -180 -42 -262 -101 -384 -243 -495 -54 -42 -157 -92 -212 -102 -14 -2
-43 -8 -65 -13 -22 -5 -94 -8 -160 -6 -166 5 -273 43 -356 125 -84 85 -120
233 -94 397 4 27 9 58 10 69 2 11 6 34 9 50 3 17 12 75 21 130 9 55 18 112 20
126 3 15 7 47 10 70 3 24 10 67 15 94 8 46 12 71 26 165 3 19 7 46 9 60 3 14
7 39 9 55 15 92 26 165 31 200 8 50 13 83 20 115 3 14 8 45 11 70 9 69 10 76
34 220 12 74 23 146 25 160 7 51 35 222 48 295 43 243 222 430 458 482 90 19
275 21 350 3 135 -32 239 -113 280 -218 19 -48 23 -76 24 -178 l0 -121 443 -1
c243 0 442 3 443 7 0 3 3 15 5 26 13 54 11 316 -2 400 -57 354 -272 621 -609
758 -82 33 -200 69 -265 81 -143 24 -187 28 -347 31 -84 1 -154 1 -155 0z"/>
<path d="M1585 5647 c-2 -12 -9 -57 -15 -100 -7 -43 -13 -88 -15 -100 -2 -12
-6 -38 -9 -57 -3 -19 -8 -46 -11 -60 -3 -14 -7 -45 -10 -70 -3 -25 -7 -56 -10
-70 -3 -14 -7 -41 -10 -60 -3 -19 -8 -48 -11 -65 -18 -105 -33 -219 -29 -224
3 -2 222 -5 487 -5 316 -1 483 -4 482 -11 -1 -5 -4 -30 -8 -55 -3 -25 -7 -56
-10 -70 -3 -14 -7 -43 -11 -65 -3 -22 -10 -65 -15 -95 -5 -30 -12 -73 -15 -95
-4 -22 -9 -53 -11 -70 -3 -16 -7 -43 -9 -60 -5 -36 -16 -102 -21 -130 -2 -10
-6 -37 -9 -60 -3 -22 -10 -62 -15 -90 -5 -27 -12 -68 -15 -90 -5 -35 -14 -94
-31 -200 -2 -16 -6 -41 -9 -55 -2 -14 -7 -45 -10 -70 -3 -25 -8 -52 -10 -60
-2 -8 -7 -35 -10 -60 -7 -47 -32 -211 -39 -245 -2 -11 -7 -42 -10 -68 -4 -27
-9 -58 -12 -70 -2 -12 -6 -39 -9 -62 -30 -209 -82 -493 -100 -547 -101 -298
-350 -471 -668 -462 -108 3 -172 17 -255 56 -170 80 -264 276 -232 486 4 26 4
49 0 52 -5 3 -202 5 -440 4 -316 -1 -434 -4 -443 -13 -14 -14 -20 -372 -7
-446 4 -27 11 -63 14 -80 9 -50 46 -157 77 -222 62 -130 162 -255 280 -348
137 -108 346 -197 544 -230 17 -3 41 -7 55 -10 61 -12 145 -17 281 -19 202 -3
340 11 509 50 36 9 72 17 80 19 45 11 185 63 255 95 358 166 636 459 768 808
57 151 62 168 86 287 22 109 22 109 46 270 10 61 19 117 20 125 2 8 8 51 15
95 7 44 14 87 15 97 2 9 7 38 11 65 3 26 8 55 10 65 1 9 6 38 10 65 3 26 8 57
10 68 3 11 9 54 15 95 6 41 14 93 19 115 5 22 12 65 15 95 4 30 8 57 10 60 2
3 6 30 10 60 3 30 8 62 10 70 2 8 7 35 10 60 3 25 8 56 10 70 3 14 7 41 10 60
3 19 7 46 10 60 6 33 13 75 20 130 3 25 8 56 10 70 3 14 7 41 10 60 3 19 10
60 15 90 5 30 12 73 15 95 3 22 7 51 10 65 27 163 55 345 59 376 3 22 12 80
20 130 15 84 50 303 59 369 7 44 18 107 23 132 l4 22 -935 0 -935 0 -5 -22z"/>
</g>
</svg>
